<?xml version="1.0" encoding="UTF-8" standalone="no"?>
<!-- Created with Inkscape (http://www.inkscape.org/) -->

<svg
   width="236.39326mm"
   height="89.63401mm"
   viewBox="0 0 236.39327 89.63401"
   version="1.1"
   id="svg1"
   xml:space="preserve"
   sodipodi:docname="LogoJGMix.svg"
   inkscape:version="1.4.2 (ebf0e94, 2025-05-08)"
   xmlns:inkscape="http://www.inkscape.org/namespaces/inkscape"
   xmlns:sodipodi="http://sodipodi.sourceforge.net/DTD/sodipodi-0.dtd"
   xmlns="http://www.w3.org/2000/svg"
   xmlns:svg="http://www.w3.org/2000/svg"><sodipodi:namedview
     id="namedview1"
     pagecolor="#505050"
     bordercolor="#eeeeee"
     borderopacity="1"
     inkscape:showpageshadow="false"
     inkscape:pageopacity="0"
     inkscape:pagecheckerboard="false"
     inkscape:deskcolor="#505050"
     inkscape:document-units="mm"
     inkscape:lockguides="false"
     inkscape:zoom="1.0544998"
     inkscape:cx="610.24195"
     inkscape:cy="324.79855"
     inkscape:window-width="1920"
     inkscape:window-height="1046"
     inkscape:window-x="0"
     inkscape:window-y="0"
     inkscape:window-maximized="1"
     inkscape:current-layer="layer1" /><defs
     id="defs1" /><g
     inkscape:label="Camada 1"
     inkscape:groupmode="layer"
     id="layer1"
     style="display:inline"
     transform="rotate(90,121.64167,138.19589)"><g
       id="g2699"
       transform="translate(-72.999979,3.1399492e-4)"><rect
         style="font-variation-settings:normal;opacity:1;vector-effect:none;fill:#ffffff;fill-opacity:1;fill-rule:evenodd;stroke:none;stroke-width:1.1;stroke-linecap:butt;stroke-linejoin:miter;stroke-miterlimit:4;stroke-dasharray:none;stroke-dashoffset:0;stroke-opacity:1;-inkscape-stroke:none;stop-color:#000000;stop-opacity:1"
         id="rect2691"
         width="166.71861"
         height="18.887917"
         x="-199.37108"
         y="76.488792"
         transform="rotate(-90)" /><path
         style="display:inline;mix-blend-mode:darken;fill:#ffffff;fill-opacity:1;fill-rule:evenodd;stroke:#ffffff;stroke-width:1.11463e-08;stroke-dasharray:none;stroke-opacity:1"
         d="m 132.1468,45.62358 2.90665,0.80759 -4.77147,-0.0426 z"
         id="path2697"
         sodipodi:nodetypes="cccc" /><rect
         style="font-variation-settings:normal;opacity:1;vector-effect:none;fill:#ffffff;fill-opacity:1;fill-rule:evenodd;stroke:none;stroke-width:1.1;stroke-linecap:butt;stroke-linejoin:miter;stroke-miterlimit:4;stroke-dasharray:none;stroke-dashoffset:0;stroke-opacity:1;-inkscape-stroke:none;stop-color:#000000;stop-opacity:1"
         id="rect2690"
         width="46.483875"
         height="45.951611"
         x="-237.95799"
         y="60.92614"
         transform="rotate(-90)" /><rect
         style="font-variation-settings:normal;display:inline;opacity:1;mix-blend-mode:darken;vector-effect:none;fill:#ffffff;fill-opacity:1;fill-rule:evenodd;stroke:none;stroke-width:1.1;stroke-linecap:butt;stroke-linejoin:miter;stroke-miterlimit:4;stroke-dasharray:none;stroke-dashoffset:0;stroke-opacity:1;-inkscape-stroke:none;stop-color:#000000;stop-opacity:1"
         id="rect2688"
         width="211.38829"
         height="21.615812"
         x="-251.25024"
         y="94.280968"
         transform="rotate(-90)" /><rect
         style="font-variation-settings:normal;opacity:1;vector-effect:none;fill:#ffffff;fill-opacity:1;fill-rule:evenodd;stroke:none;stroke-width:1.1;stroke-linecap:butt;stroke-linejoin:miter;stroke-miterlimit:4;stroke-dasharray:none;stroke-dashoffset:0;stroke-opacity:1;-inkscape-stroke:none;stop-color:#000000;stop-opacity:1"
         id="rect2689"
         width="189.32103"
         height="21.056921"
         x="-235.65154"
         y="113.70547"
         transform="rotate(-90)" /><path
         style="fill:#d51320"
         d="m 140.57198,234.05232 c 0.087,2.24861 -1.63943,4.71369 -3.78733,5.25454 -1.51156,0.38061 -1.89323,0.46133 -9.90052,-2.0135 -3.8003,-1.17457 -7.0243,-1.92039 -7.11237,-1.83232 -0.0881,0.0881 -0.21757,5.55189 -0.2878,12.14184 -0.0702,6.58995 -0.21623,12.07789 -0.32445,12.19542 -0.10822,0.11753 -1.19597,-0.04 -2.41724,-0.35006 -3.45218,-0.87647 -28.10846,-7.47959 -33.5736,-8.99124 -7.90045,-2.18525 -23.0012,-6.28089 -24.93698,-6.76342 l -1.78593,-0.44517 v -28.14596 c 0,-23.47645 0.0594,-28.14596 0.35781,-28.14596 0.19679,0 2.66734,0.59632 5.4901,1.32515 2.82276,0.72883 6.79917,1.74887 8.83646,2.26676 2.03729,0.51788 3.91253,1.00115 4.16719,1.07393 0.43674,0.12481 0.46302,-0.64967 0.46302,-13.64384 0,-9.98842 0.0814,-13.77616 0.29621,-13.77616 0.29689,0 6.58284,1.56643 31.98295,7.97001 22.56086,5.68778 27.05569,6.87041 28.03524,7.37636 2.31862,1.1976 4.02482,3.99733 4.50672,7.39514 0.29546,2.08331 0.28704,43.9396 -0.009,47.10848 z m -6.37411,-46.0658 c -1.24968,-2.66965 -0.85231,-2.51799 -17.31186,-6.60702 -8.07524,-2.00613 -15.00632,-3.68536 -15.4024,-3.73161 l -0.72015,-0.0841 v 11.21906 11.21906 l 5.82084,1.54199 c 3.20145,0.84809 5.91013,1.54428 6.01927,1.54709 0.10914,0.003 0.19843,-2.25007 0.19843,-5.00637 0,-2.75631 0.0893,-5.0593 0.19844,-5.11777 0.14855,-0.0796 7.89349,1.82934 10.58333,2.60849 0.25721,0.0745 0.33073,2.36224 0.33073,10.29057 0,9.53552 -0.0299,10.19431 -0.46302,10.1879 -0.25466,-0.004 -2.9038,-0.65387 -5.88698,-1.44466 -2.98317,-0.79079 -10.15669,-2.66039 -15.94114,-4.15467 L 91.10617,207.7376 v -16.33348 -16.33348 l -0.99219,-0.25966 c -7.13037,-1.86606 -9.27289,-2.40657 -9.53943,-2.40657 -0.24132,0 -0.31629,3.29269 -0.31629,13.89062 0,12.054 -0.0515,13.89063 -0.38951,13.89063 -0.21422,0 -4.05399,-0.97056 -8.53281,-2.1568 -4.47882,-1.18624 -8.4717,-2.21193 -8.87306,-2.2793 l -0.72975,-0.12251 0.0683,15.43273 0.0683,15.43273 5.95313,1.65001 c 3.27422,0.90752 6.10195,1.65597 6.28385,1.66325 0.25494,0.0102 0.33073,-1.31716 0.33073,-5.792 0,-3.19287 0.0927,-5.8625 0.20597,-5.93251 0.11328,-0.07 3.41726,0.75844 7.34218,1.841 3.92493,1.08257 9.81513,2.68859 13.08935,3.56895 3.27422,0.88036 6.10195,1.64849 6.28386,1.70696 0.2578,0.0829 0.33072,2.61442 0.33072,11.48148 v 11.37519 l 1.12448,0.2982 c 0.61847,0.16401 3.2872,0.88298 5.93052,1.5977 2.64333,0.71473 4.87575,1.2995 4.96094,1.2995 0.0852,0 0.1549,-5.24102 0.1549,-11.64671 v -11.6467 l 0.7276,0.16979 c 0.40018,0.0934 4.07041,1.10768 8.15606,2.254 4.08565,1.14631 7.77844,2.0842 8.20621,2.0842 1.12217,0 2.53925,-0.84645 3.15075,-1.882 0.74424,-1.26033 0.79393,-2.71836 0.79255,-23.25341 l -0.001,-17.85938 z M 124.7744,86.59224 C 115.53848,79.2109 106.31352,71.89913 105.21032,71.0856 l -0.84482,-0.62299 -4.04998,1.47301 c -2.22748,0.81015 -7.48385,2.73252 -11.68081,4.27194 -4.19696,1.53941 -7.68211,2.79893 -7.74477,2.79893 -0.0627,0 -0.0816,-2.27916 -0.0421,-5.0648 l 0.0719,-5.0648 7.27605,-2.32973 c 4.00182,-1.28135 8.13924,-2.58566 9.19427,-2.89847 1.05502,-0.31281 1.91463,-0.64644 1.91024,-0.74141 -0.004,-0.095 -4.16501,-3.62548 -9.24582,-7.84558 l -9.23783,-7.67292 -0.0146,-4.99333 c -0.0115,-3.95235 0.0543,-4.94166 0.31613,-4.74545 1.35131,1.01284 7.04797,5.74455 11.57435,9.61378 9.57861,8.18797 12.4774,10.57604 12.83786,10.57604 0.34178,0 7.22926,-2.43263 19.9035,-7.02984 3.38226,-1.22682 6.20999,-2.23057 6.28385,-2.23057 0.0739,0 0.13429,2.2448 0.13429,4.98845 v 4.98846 l -10.18562,3.66425 c -5.6021,2.01533 -10.09671,3.73941 -9.98802,3.83127 0.10868,0.0919 1.86448,1.52299 3.90177,3.18029 2.03729,1.6573 5.08606,4.14757 6.77504,5.53392 1.68899,1.38636 4.57625,3.74633 6.41615,5.24439 l 3.34527,2.72375 v 4.86296 4.86296 z m 6.81302,81.04918 c -0.0728,-6.6e-4 -1.6801,-0.40887 -3.57188,-0.90715 -1.89177,-0.49827 -12.60739,-3.24097 -23.81249,-6.09487 -11.20511,-2.85391 -20.73011,-5.29265 -21.16667,-5.41944 -0.43656,-0.12679 -1.12117,-0.30302 -1.52135,-0.39162 l -0.72761,-0.16109 v -5.78941 -5.7894 l 1.25677,-0.28814 c 2.22513,-0.51017 24.72548,-5.0563 25.02532,-5.0563 0.1633,0 0.12064,-0.16183 -0.0978,-0.37099 -0.50944,-0.48782 -25.4243,-17.90811 -25.85357,-18.07663 -0.25095,-0.0985 -0.33073,-1.56704 -0.33073,-6.08772 v -5.95789 l 0.72761,0.15515 c 0.40018,0.0853 6.20448,1.4739 12.89843,3.0857 15.6459,3.76729 16.71125,4.02064 27.97904,6.65367 l 9.4582,2.21016 6.5e-4,4.5819 c 6e-4,4.24154 -0.0337,4.57135 -0.46237,4.43997 -0.25466,-0.0781 -1.47505,-0.37761 -2.71198,-0.66569 -1.23692,-0.28807 -9.01846,-2.19677 -17.2923,-4.24154 -8.27383,-2.04477 -15.15672,-3.71776 -15.2953,-3.71776 -0.58323,0 0.38465,0.73515 6.34005,4.81557 3.44933,2.36336 7.28354,4.99419 8.52047,5.84629 1.23693,0.85209 5.86305,4.01075 10.28028,7.01922 6.20005,4.22272 7.88927,5.48884 7.40833,5.55276 -0.34264,0.0455 -7.29048,1.33502 -15.43965,2.86552 -8.14917,1.5305 -15.53104,2.91175 -16.40417,3.06945 -0.87312,0.1577 -1.67751,0.36317 -1.78753,0.4566 -0.19466,0.1653 6.209,1.7627 26.48606,6.607 5.43503,1.29846 9.92145,2.40042 9.96983,2.4488 0.14516,0.14515 0.26756,9.20916 0.12435,9.20788 z m -0.21131,-58.58781 c -0.75734,-0.24037 -24.2071,-5.93328 -37.09494,-9.00555 -6.47568,-1.54371 -12.22044,-2.92557 -12.76614,-3.07081 l -0.99219,-0.26407 v -4.7523 c 0,-4.0408 0.0592,-4.7523 0.39555,-4.7523 0.21755,0 1.97372,0.40613 3.9026,0.9025 1.92888,0.49638 6.78128,1.69768 10.7831,2.66956 10.07108,2.44587 33.7569,8.26679 35.12343,8.63179 l 1.12448,0.30034 v 4.74594 c 0,4.44846 -0.0298,4.73648 -0.47589,4.5949 z M 98.5145,48.7117 c -51.156731,-25.878758 48.31873,24.443095 0,0 z"
         id="path2677"
         sodipodi:nodetypes="csssssssscsssssssssscccsscccscsssscsscccsssssscccsssssssscsssscsssscccsscsssccsscscscssssscssssscccsssssscccssssscssscssssssssssssssssssscssssscssss" /><path
         style="fill:#ffffff;fill-opacity:1;fill-rule:evenodd;stroke:#ffffff;stroke-width:7.9375e-09;stroke-dasharray:none;stroke-opacity:1"
         d="M 132.89739,43.633906 Z"
         id="path2698" /><path
         style="display:inline;mix-blend-mode:darken;fill:#173a23;stroke:none;stroke-opacity:1"
         d="m 321.69026,158.36498 c 0,0.007 -5.5893,-1.64976 -11.97274,-3.49425 -6.38345,-1.84449 -12.21202,-3.53896 -12.95238,-3.76549 l -1.28382,-0.41187 0.0577,-3.19992 c 0.0317,-1.76091 0.0517,-3.34622 0.18142,-3.26442 0.0652,0.0411 3.2565,0.75448 7.08024,1.85032 3.82373,1.09584 7.34958,2.06417 7.83522,2.15183 2.19254,0.39578 4.35782,-0.90832 5.43476,-3.27323 0.53262,-1.16961 0.54536,-1.65461 0.63398,-24.13708 0.0607,-15.41171 -0.003,-23.61513 -0.19413,-24.98948 -0.48434,-3.48231 -2.17415,-6.28544 -4.51922,-7.4967 -0.97955,-0.50595 -5.47438,-1.68858 -28.03524,-7.37636 -25.40011,-6.40358 -31.68606,-7.97001 -31.98295,-7.97001 -0.21477,0 -0.29621,3.79049 -0.29621,13.78664 0,10.91503 -0.0689,13.76238 -0.33073,13.67019 -0.1819,-0.0641 -1.72971,-0.45851 -3.43958,-0.87658 l -3.10886,-0.76013 V 15.51921 c 0,-47.74497 0.0993,-83.28923 0.23271,-83.28923 0.24735,0 4.5518,1.49845 14.45167,5.03086 3.34698,1.19425 11.50276,4.07336 18.12395,6.39801 6.6212,2.32466 15.61042,5.48166 19.97605,7.01555 4.36562,1.5339 8.59234,2.99665 9.3927,3.25057 0.84479,0.268 1.28873,0.52107 1.05834,0.60329 -5.26021,1.87728 -25.97351,8.92255 -26.23256,8.92255 -0.19797,0 -5.25458,-4.07789 -11.23691,-9.06198 -14.69054,-12.2392 -16.19333,-13.45723 -16.32083,-13.22823 -0.0605,0.10863 -0.13407,3.89701 -0.16352,8.41862 l -0.0536,8.22112 7.59655,6.01307 c 4.1781,3.30719 7.83938,6.18315 8.13616,6.39103 0.29678,0.20787 0.48726,0.42262 0.42328,0.47722 -0.064,0.0546 -3.6882,1.23298 -8.05383,2.61863 l -7.9375,2.51934 -0.07,7.9708 c -0.0385,4.38394 -0.0104,7.9708097 0.0624,7.9708097 0.0728,0 2.30702,-0.78718 4.96481,-1.74929 15.23029,-5.5132497 19.19459,-6.9536597 19.86966,-7.2195697 0.41239,-0.16245 0.88864,-0.21031 1.05833,-0.10637 0.16969,0.10395 6.94934,5.34847 15.0659,11.6545097 8.11655,6.30601998 14.92373,11.52934 15.12707,11.60737 0.31111,0.11938 0.37425,-1.11687 0.39838,-7.79984 l 0.0287,-7.94172 -2.8633,-2.3313997 c -1.57482,-1.28228 -5.55962,-4.47454 -8.85512,-7.09391 -3.2955,-2.61937 -5.99936,-4.82637 -6.00859,-4.90443 -0.009,-0.0781 1.85847,-0.77972 4.15042,-1.55924 2.29196,-0.77952 6.22459,-2.12924 8.7392,-2.99939 l 4.572,-1.58208 -0.0741,-7.37289 c -0.0649,-6.45558 -0.0247,-7.35716 0.32279,-7.2465 0.21828,0.0695 2.83766,1.00741 5.82083,2.08422 l 5.42396,1.95784 0.0665,99.67354 c 0.0566,84.83518 -0.3,98.96597 -0.29998,99.26676 z M 301.69575,63.09731 c -4.79525,-1.12836 -11.01627,-2.61478 -13.82448,-3.30314 l -5.10585,-1.25157 2.24896,-0.46341 c 1.23692,-0.25487 7.41793,-1.4691 13.73556,-2.69829 6.31763,-1.22919 11.54929,-2.29757 11.62591,-2.3742 0.0766,-0.0766 -0.0322,-0.30176 -0.24181,-0.50029 -0.31507,-0.29842 -24.49348,-17.04907 -26.08013,-18.06815 -0.33188,-0.21316 -0.10281,-0.19765 0.69588,0.0471 1.29553,0.39704 25.24485,6.48836 25.51036,6.48836 0.0894,0 0.13085,-3.36028 0.0922,-7.46727 l -0.0703,-7.46727 -2.38125,-0.56798 c -4.76662,-1.13693 -34.64447,-8.40465 -44.02106,-10.70803 -5.29388,-1.30045 -9.73254,-2.36445 -9.86369,-2.36445 -0.19788,0 -0.0838,17.75694 0.11477,17.85907 0.60059,0.30894 12.48391,7.89154 17.07535,10.89557 5.06992,3.31708 6.05899,4.06112 5.55625,4.17978 -0.33639,0.0794 -1.9213,0.37246 -3.52203,0.65126 -5.99399,1.04397 -19.02732,3.49249 -19.21816,3.61044 -0.10901,0.0674 -0.1753,3.76877 -0.14731,8.22533 l 0.0509,8.10284 3.83646,0.98767 c 6.34208,1.63274 35.5609,9.11262 43.92083,11.24354 4.29286,1.09423 8.01356,2.05444 8.26823,2.13379 0.43361,0.13512 0.46302,-0.34104 0.46302,-7.49743 v -7.64171 z m 7.99102,-56.9350003 c -0.40018,-0.0886 -1.08479,-0.26692 -1.52135,-0.39626 -4.24881,-1.25876 -46.74653,-11.63944 -53.51614,-13.07207 l -0.86405,-0.18286 0.0703,7.49640998 0.0703,7.49642002 7.14375,1.75405 c 3.92906,0.9647403 10.4775,2.5562903 14.55208,3.5367903 6.69086,1.61008 22.9448,5.53349 31.28448,7.55151 1.78125,0.43103 3.2993,0.78369 3.37343,0.78369 0.0741,0 0.1348,-3.33148 0.1348,-7.4033 V 6.3233997 Z"
         id="path2676"
         sodipodi:nodetypes="csscssssssssssssscssssssssssscsssscsssssssscsscsscssscsscsscsssssssscssssssssscsssscsssscccssssscs"
         transform="translate(-175.91654,91.214009)" /></g></g></svg>
